<?xml version="1.0" encoding="UTF-8" standalone="no"?>
<!DOCTYPE svg PUBLIC "-//W3C//DTD SVG 1.1//EN" "http://www.w3.org/Graphics/SVG/1.1/DTD/svg11.dtd">
<svg xmlns="http://www.w3.org/2000/svg" version="1.1" viewBox="0.00 0.00 412.00 390.00">
<g stroke-width="2.00" fill="none" stroke-linecap="butt">
<path stroke="#cd0d0d" vector-effect="non-scaling-stroke" d="
  M 402.33 135.22
  Q 389.66 138.82 377.90 138.58
  Q 353.17 138.09 333.68 139.00"
/>
<path stroke="#cd0d0d" vector-effect="non-scaling-stroke" d="
  M 257.11 138.30
  L 174.97 138.49"
/>
<path stroke="#eae0e0" vector-effect="non-scaling-stroke" d="
  M 215.59 283.77
  Q 204.48 283.42 193.35 283.37
  Q 118.06 283.04 42.76 283.42
  Q 33.45 283.47 23.87 283.78"
/>
<path stroke="#b70b0b" vector-effect="non-scaling-stroke" d="
  M 408.69 228.50
  Q 386.31 230.44 363.97 227.84"
/>
<path stroke="#d6cdcd" vector-effect="non-scaling-stroke" d="
  M 197.58 311.48
  L 51.84 311.05"
/>
<path stroke="#bdb5b5" vector-effect="non-scaling-stroke" d="
  M 179.86 338.74
  L 149.31 339.50"
/>
</g>
<path fill="#d30d0d" d="
  M 265.14 0.00
  L 268.09 1.05
  A 0.54 0.54 0.0 0 1 268.44 1.63
  L 259.43 76.26
  A 0.31 0.31 0.0 0 0 259.87 76.58
  C 286.37 63.97 313.31 59.71 341.40 69.59
  Q 375.64 81.65 392.91 113.56
  Q 398.57 124.02 402.33 135.22
  Q 389.66 138.82 377.90 138.58
  Q 353.17 138.09 333.68 139.00
  Q 312.57 122.37 285.48 126.70
  Q 270.30 129.13 257.11 138.30
  L 174.97 138.49
  L 264.56 0.00
  L 265.14 0.00
  Z"
/>
<path fill="#f5eaea" d="
  M 73.80 184.55
  Q 67.76 174.87 67.44 162.91
  C 66.77 138.23 76.07 112.73 90.33 92.32
  Q 107.00 68.47 130.51 48.75
  C 150.92 31.64 173.56 16.33 194.33 4.35
  C 201.38 0.29 211.37 0.82 220.69 1.65
  A 0.59 0.59 0.0 0 1 221.21 2.35
  C 220.08 7.89 215.99 8.58 211.79 11.02
  C 169.19 35.74 130.21 64.23 101.46 103.18
  Q 86.52 123.42 79.30 147.22
  Q 77.33 153.70 76.55 161.39
  Q 74.48 181.78 74.20 184.46
  A 0.22 0.22 0.0 0 1 73.80 184.55
  Z"
/>
<path fill="#f5eaea" d="
  M 215.59 283.77
  Q 204.48 283.42 193.35 283.37
  Q 118.06 283.04 42.76 283.42
  Q 33.45 283.47 23.87 283.78
  Q 16.51 272.51 11.66 258.60
  Q 1.37 229.11 0.00 198.86
  L 0.00 187.04
  Q 1.33 157.98 10.94 132.44
  Q 21.85 103.48 39.32 80.55
  Q 51.49 64.56 70.77 48.52
  C 102.15 22.41 140.02 7.51 180.68 2.21
  A 0.59 0.58 83.4 0 1 181.34 2.74
  C 181.82 8.45 175.62 8.86 171.36 11.05
  Q 161.54 16.11 153.76 20.51
  C 113.28 43.39 80.00 74.90 60.14 117.06
  C 46.71 145.57 43.49 177.38 51.68 207.56
  C 55.64 222.16 61.37 232.96 71.04 243.97
  C 90.82 266.47 130.26 272.12 153.19 251.36
  A 0.43 0.43 0.0 0 0 153.07 250.65
  C 144.32 246.94 136.13 245.85 124.58 243.41
  Q 113.80 241.13 104.46 236.10
  A 0.32 0.31 52.3 0 1 104.53 235.52
  L 268.52 194.31
  A 0.76 0.76 0.0 0 1 269.25 194.51
  L 271.27 196.53
  A 1.08 1.07 -51.2 0 1 271.41 197.87
  L 215.59 283.77
  Z"
/>
<path fill="#c70c0c" d="
  M 412.00 186.65
  L 412.00 187.37
  Q 411.53 188.33 412.00 188.25
  L 412.00 199.63
  Q 411.39 214.17 408.69 228.50
  Q 386.31 230.44 363.97 227.84
  Q 368.18 191.43 350.50 159.51
  Q 343.99 147.75 333.68 139.00
  Q 353.17 138.09 377.90 138.58
  Q 389.66 138.82 402.33 135.22
  Q 410.68 160.24 412.00 186.65
  Z"
/>
<path fill="#c70c0c" d="
  M 257.11 138.30
  C 268.76 142.95 278.19 144.21 291.24 146.28
  Q 299.64 147.61 306.99 150.04
  A 0.51 0.51 0.0 0 1 307.03 150.99
  Q 300.72 153.71 290.68 156.68
  Q 234.75 173.20 173.42 187.17
  Q 157.12 190.89 140.47 193.46
  A 0.53 0.53 0.0 0 1 139.95 192.65
  L 174.97 138.49
  L 257.11 138.30
  Z"
/>
<path fill="#c70c0c" d="
  M 339.55 202.22
  Q 345.36 220.03 343.64 238.00
  C 340.63 269.36 323.57 298.60 301.91 320.91
  C 277.74 345.80 248.62 365.90 217.75 384.27
  Q 210.67 388.49 206.74 389.04
  Q 199.61 390.05 192.52 387.48
  A 2.00 1.98 -73.0 0 1 191.27 385.11
  Q 191.53 384.14 192.54 382.94
  A 2.68 2.68 0.0 0 1 193.21 382.39
  C 239.90 355.86 286.54 323.38 315.78 277.54
  C 329.27 256.39 336.96 233.74 337.42 208.39
  Q 337.47 205.77 339.06 202.20
  A 0.26 0.26 0.0 0 1 339.55 202.22
  Z"
/>
<path fill="#a70a0a" d="
  M 363.97 227.84
  Q 386.31 230.44 408.69 228.50
  C 399.07 277.08 370.80 320.24 330.84 349.10
  Q 288.07 379.98 235.78 386.93
  A 1.06 1.04 56.1 0 1 235.14 386.80
  L 231.75 384.84
  A 0.47 0.47 0.0 0 1 231.75 384.02
  Q 247.01 375.08 258.50 368.60
  Q 274.43 359.61 284.51 352.06
  C 303.76 337.62 320.66 321.47 334.64 301.67
  Q 358.13 268.37 363.97 227.84
  Z"
/>
<path fill="#ded5d5" d="
  M 215.59 283.77
  L 197.58 311.48
  L 51.84 311.05
  Q 35.07 300.69 23.87 283.78
  Q 33.45 283.47 42.76 283.42
  Q 118.06 283.04 193.35 283.37
  Q 204.48 283.42 215.59 283.77
  Z"
/>
<path fill="#cec5c5" d="
  M 197.58 311.48
  L 179.86 338.74
  L 149.31 339.50
  L 152.29 316.97
  A 0.85 0.84 22.2 0 0 151.95 316.17
  Q 149.25 314.18 146.74 315.27
  Q 132.77 321.31 118.39 323.65
  Q 85.25 329.03 55.85 313.32
  Q 53.92 312.29 51.84 311.05
  L 197.58 311.48
  Z"
/>
<path fill="#aba4a4" d="
  M 179.86 338.74
  L 147.02 389.25
  A 0.79 0.79 0.0 0 1 146.27 389.59
  L 143.55 389.26
  A 0.76 0.76 0.0 0 1 142.88 388.41
  L 149.31 339.50
  L 179.86 338.74
  Z"
/>
</svg>
